<svg width="16" height="18" viewBox="0 0 16 18" fill="none" xmlns="http://www.w3.org/2000/svg">
<path d="M7.99724 4C8.28057 4 8.51824 3.904 8.71024 3.712C8.90224 3.52 8.9979 3.28267 8.99724 3C8.99657 2.71733 8.90057 2.48 8.70924 2.288C8.5179 2.096 8.28057 2 7.99724 2C7.7139 2 7.47657 2.096 7.28524 2.288C7.0939 2.48 6.9979 2.71733 6.99724 3C6.99657 3.28267 7.09257 3.52033 7.28524 3.713C7.4779 3.90567 7.71524 4.00133 7.99724 4ZM10.8222 4H12.5722C13.0722 4 13.5056 4.16667 13.8722 4.5C14.2389 4.83333 14.4639 5.24167 14.5472 5.725L15.9722 15.725C16.0556 16.325 15.9016 16.8543 15.5102 17.313C15.1189 17.7717 14.6146 18.0007 13.9972 18H1.99724C1.38057 18 0.876235 17.771 0.484235 17.313C0.0922352 16.855 -0.0617647 16.3257 0.0222353 15.725L1.44723 5.725C1.53057 5.24167 1.75557 4.83333 2.12224 4.5C2.4889 4.16667 2.92224 4 3.42224 4H5.17224C5.12224 3.83333 5.08057 3.671 5.04724 3.513C5.0139 3.355 4.99724 3.184 4.99724 3C4.99724 2.16667 5.2889 1.45833 5.87224 0.875C6.45557 0.291667 7.1639 0 7.99724 0C8.83057 0 9.5389 0.291667 10.1222 0.875C10.7056 1.45833 10.9972 2.16667 10.9972 3C10.9972 3.18333 10.9806 3.35433 10.9472 3.513C10.9139 3.67167 10.8722 3.834 10.8222 4Z" fill="black"/>
</svg>
